<?xml version="1.0" standalone="no"?><!DOCTYPE svg PUBLIC "-//W3C//DTD SVG 1.1//EN" "http://www.w3.org/Graphics/SVG/1.1/DTD/svg11.dtd"><svg t="1735796385047" class="icon" viewBox="0 0 1520 1024" version="1.1" xmlns="http://www.w3.org/2000/svg" p-id="5876" xmlns:xlink="http://www.w3.org/1999/xlink" width="296.875" height="200"><path d="M761.885264 1023.99883a115.477811 115.477811 0 0 1-57.051363-14.804098L27.502561 577.827911c-17.027638-11.410273-27.355397-30.16408-27.413912-49.356744-0.029257-16.29621 5.237023-29.491166 16.09141-40.491839 11.498044-12.785357 30.16408-20.684776 50.41-20.684776 14.628555 0 28.584196 4.095995 40.316297 11.849129l655.242222 417.791523L1412.709663 478.061168c11.410273-7.577591 25.190371-11.702844 39.555612-11.702844 18.958607 0 37.361329 7.431306 50.556285 20.362948 12.726843 12.5513 18.841578 28.554939 17.203181 45.114463-1.696912 17.115409-11.761358 32.972762-27.706483 43.476065L821.072396 1007.058963c-16.705809 11.02993-37.273557 16.939866-59.187132 16.939867z" fill="#ffffff" p-id="5877"></path><path d="M761.738979 565.013297a115.507068 115.507068 0 0 1-57.080621-14.804097L27.385532 118.842378C10.211609 107.315077-0.057637 88.502756 0.000878 69.310092-0.028379 53.247939 5.2379 40.023726 16.033774 29.05231 27.502561 16.237696 46.256368 8.309019 66.443773 8.309019c14.599298 0 28.525682 4.095995 40.257783 11.819872l655.300737 417.879294L1412.563378 19.075635a71.855461 71.855461 0 0 1 39.584869-11.673586c18.958607 0 37.390586 7.402049 50.556285 20.362948 12.726843 12.580557 18.841578 28.584196 17.20318 45.14372-1.696912 17.086152-11.761358 32.914248-27.677225 43.446807L820.984625 548.044174a107.519877 107.519877 0 0 1-59.245646 16.969123z" fill="#ffffff" p-id="5878"></path></svg>